<?xml version="1.0" encoding="UTF-8"?>
<svg xmlns="http://www.w3.org/2000/svg" xmlns:xlink="http://www.w3.org/1999/xlink" width="199pt" height="281pt" viewBox="0 0 199 281" version="1.1">
<g id="surface1">
<path style=" stroke:none;fill-rule:evenodd;fill:rgb(33.333333%,0%,0%);fill-opacity:1;" d="M 26.570312 76.308594 L 168.730469 76.308594 L 168.730469 218.273438 L 26.570312 218.273438 Z M 26.570312 76.308594 "/>
<path style=" stroke:none;fill-rule:evenodd;fill:rgb(100%,33.333333%,33.333333%);fill-opacity:1;" d="M 27.101562 76.308594 L 168.730469 76.308594 L 168.730469 81.964844 L 27.101562 81.964844 Z M 27.101562 76.308594 "/>
<path style=" stroke:none;fill-rule:evenodd;fill:rgb(100%,33.333333%,33.333333%);fill-opacity:1;" d="M 168.730469 76.308594 L 168.734375 217.742188 L 163.066406 217.742188 L 163.0625 76.308594 Z M 168.730469 76.308594 "/>
<path style=" stroke:none;fill-rule:evenodd;fill:rgb(100%,33.333333%,33.333333%);fill-opacity:1;" d="M 32.769531 76.308594 L 32.773438 217.742188 L 27.105469 217.742188 L 27.101562 76.308594 Z M 32.769531 76.308594 "/>
<path style=" stroke:none;fill-rule:evenodd;fill:rgb(100%,33.333333%,33.333333%);fill-opacity:1;" d="M 27.105469 212.082031 L 168.734375 212.082031 L 168.734375 217.742188 L 27.105469 217.742188 Z M 27.105469 212.082031 "/>
<path style=" stroke:none;fill-rule:evenodd;fill:rgb(100%,33.333333%,33.333333%);fill-opacity:1;" d="M 98.972656 51.691406 L 125.53125 78.703125 L 98.480469 105.226562 L 71.921875 78.214844 Z M 98.972656 51.691406 "/>
<path style=" stroke:none;fill-rule:evenodd;fill:rgb(50.196078%,0%,0%);fill-opacity:1;" d="M 97.585938 167.28125 C 97.585938 148.765625 84.097656 133.753906 67.460938 133.753906 C 50.828125 133.753906 37.339844 148.765625 37.339844 167.28125 C 37.339844 185.796875 50.828125 200.808594 67.460938 200.808594 C 84.097656 200.808594 97.585938 185.796875 97.585938 167.28125 Z M 97.585938 167.28125 "/>
<path style=" stroke:none;fill-rule:evenodd;fill:rgb(66.666667%,0%,0%);fill-opacity:1;" d="M 92.371094 161.882812 C 92.371094 147.21875 83.539062 135.332031 72.644531 135.332031 C 61.746094 135.332031 52.914062 147.21875 52.914062 161.882812 C 52.914062 176.546875 61.746094 188.4375 72.644531 188.4375 C 83.539062 188.4375 92.371094 176.546875 92.371094 161.882812 Z M 92.371094 161.882812 "/>
<path style=" stroke:none;fill-rule:evenodd;fill:rgb(50.196078%,0%,0%);fill-opacity:1;" d="M 160.367188 167.46875 C 160.367188 148.953125 146.878906 133.941406 130.242188 133.941406 C 113.605469 133.941406 100.121094 148.953125 100.121094 167.46875 C 100.121094 185.984375 113.605469 200.996094 130.242188 200.996094 C 146.878906 200.996094 160.367188 185.984375 160.367188 167.46875 Z M 160.367188 167.46875 "/>
<path style=" stroke:none;fill-rule:evenodd;fill:rgb(66.666667%,0%,0%);fill-opacity:1;" d="M 143.335938 162.683594 C 143.335938 148.015625 134.5 136.128906 123.605469 136.128906 C 112.710938 136.128906 103.875 148.015625 103.875 162.683594 C 103.875 177.347656 112.710938 189.234375 123.605469 189.234375 C 134.5 189.234375 143.335938 177.347656 143.335938 162.683594 Z M 143.335938 162.683594 "/>
<path style=" stroke:none;fill-rule:evenodd;fill:rgb(33.333333%,0%,0%);fill-opacity:1;" d="M 87.15625 151.550781 C 87.15625 147.015625 83.164062 143.34375 78.242188 143.34375 C 73.316406 143.34375 69.324219 147.015625 69.324219 151.550781 C 69.324219 156.082031 73.316406 159.757812 78.242188 159.757812 C 83.164062 159.757812 87.15625 156.082031 87.15625 151.550781 Z M 87.15625 151.550781 "/>
<path style=" stroke:none;fill-rule:evenodd;fill:rgb(33.333333%,0%,0%);fill-opacity:1;" d="M 128.195312 151.316406 C 128.195312 146.785156 124.203125 143.109375 119.28125 143.109375 C 114.355469 143.109375 110.363281 146.785156 110.363281 151.316406 C 110.363281 155.851562 114.355469 159.523438 119.28125 159.523438 C 124.203125 159.523438 128.195312 155.851562 128.195312 151.316406 Z M 128.195312 151.316406 "/>
</g>
</svg>
